<svg data-v-fde0c5aa="" xmlns="http://www.w3.org/2000/svg" viewBox="0 0 300 300" class="iconLeftSlogan"><!----><defs data-v-fde0c5aa=""><!----></defs><rect data-v-fde0c5aa="" fill="transparent" x="0" y="0" width="300px" height="300px" class="logo-background-square"></rect><defs data-v-fde0c5aa=""><!----></defs><g data-v-fde0c5aa="" id="c3ad1de4-a07b-4a2b-850c-a765abc42615" fill="#000000" transform="matrix(4.719448284274214,0,0,4.719448284274214,154.70911354870788,101.2614410028228)"><path d="M2.17 9.88L2.17 9.88L2.22 9.64L2.22 9.64Q3.78 9.98 5.03 8.69L5.03 8.69L5.03 8.69Q6.29 7.40 6.63 6.19L6.63 6.19L6.63 6.19Q6.97 4.97 6.22 4.17L6.22 4.17L6.22 4.17Q5.47 3.36 4.43 3.51L4.43 3.51L2.06 3.50L1.07 4.70L0.57 5.21L0.73 5.44L1.41 4.79L2.86 4.86L2.86 4.86Q1.93 5.30 1.65 6.45L1.65 6.45L0.80 10.71L0.80 10.71Q0.28 12.00-0.98 12.69L-0.98 12.69L-0.93 12.90L-0.93 12.90Q-0.39 12.63 1.39 12.73L1.39 12.73L2.85 11.33L2.85 11.33Q1.98 11.60 0.92 11.48L0.92 11.48L0.92 11.48Q1.92 10.92 2.17 9.88ZM2.82 7.89L2.47 8.26L3.12 4.84L3.12 4.84Q4.44 4.69 4.98 5.15L4.98 5.15L4.98 5.15Q5.52 5.61 5.58 6.72L5.58 6.72L5.58 6.72Q5.63 7.83 4.74 8.32L4.74 8.32L4.74 8.32Q3.84 8.80 2.82 7.89L2.82 7.89ZM7.66 3.79L6.10 5.62L6.31 5.71L6.31 5.71Q6.62 5.24 7.11 5.22L7.11 5.22L9.93 5.23L9.93 5.23Q9.02 5.70 8.61 6.73L8.61 6.73L7.88 10.32L7.72 11.15L7.72 11.15Q7.39 11.87 6.23 12.90L6.23 12.90L6.40 12.93L6.40 12.93Q6.82 12.66 8.65 12.70L8.65 12.70L10.04 11.40L9.91 11.27L9.91 11.27Q9.52 11.51 7.98 11.45L7.98 11.45L7.98 11.45Q8.56 10.95 9.40 9.93L9.40 9.93L10.33 5.24L12.33 5.23L13.90 3.92L13.82 3.79L7.66 3.79ZM20.17 4.76L18.88 6.21L18.14 10.38L18.00 11.19L18.00 11.19Q17.68 11.90 16.56 12.90L16.56 12.90L16.73 12.93L16.73 12.93Q17.14 12.66 18.98 12.71L18.98 12.71L20.33 11.43L20.19 11.31L20.19 11.31Q19.81 11.55 18.27 11.48L18.27 11.48L18.27 11.48Q18.83 11.00 19.37 10.00L19.37 10.00L20.37 4.83L20.17 4.76ZM20.47 3.57L20.47 3.57L20.47 3.57Q19.88 3.71 19.13 4.45L19.13 4.45L16.79 7.13L16.79 7.13Q15.22 3.64 14.73 3.75L14.73 3.75L14.73 3.75Q14.23 3.86 12.66 5.22L12.66 5.22L12.84 5.36L12.84 5.36Q13.93 4.57 14.33 5.38L14.33 5.38L14.33 5.38Q13.43 6.28 13.41 6.60L13.41 6.60L12.74 10.38L12.60 11.19L12.60 11.19Q12.28 11.90 11.16 12.90L11.16 12.90L11.33 12.93L11.33 12.93Q11.74 12.66 13.58 12.71L13.58 12.71L14.93 11.43L14.79 11.31L14.79 11.31Q14.41 11.55 12.87 11.48L12.87 11.48L12.87 11.48Q13.43 11.00 13.97 10.00L13.97 10.00L14.63 6.00L16.04 8.73L16.04 8.73Q16.45 9.24 15.78 9.90L15.78 9.90L15.99 10.12L16.93 9.24L16.93 9.24Q17.77 8.48 17.03 7.66L17.03 7.66L19.54 4.70L19.54 4.70Q20.44 3.98 21.25 5.30L21.25 5.30L22.31 4.13L22.31 4.13Q22.04 3.90 21.55 3.66L21.55 3.66L21.55 3.66Q21.07 3.42 20.47 3.57Z"></path></g><defs data-v-fde0c5aa=""><linearGradient data-v-fde0c5aa="" gradientTransform="rotate(25)" id="d614deed-7416-4e1f-8d56-123beda0de20" x1="0%" y1="0%" x2="100%" y2="0%"><stop data-v-fde0c5aa="" offset="0%" stop-color="#041804" stop-opacity="1"></stop><stop data-v-fde0c5aa="" offset="100%" stop-opacity="1"></stop></linearGradient></defs><g data-v-fde0c5aa="" id="395306c0-4f96-4c5b-a9b5-bdd41fe0f393" stroke="none" fill="url(#d614deed-7416-4e1f-8d56-123beda0de20)" transform="matrix(3.033876691878213,0,0,3.033876691878213,40,101.4579729299486)"><path d="M16 1c8.271 0 15 6.729 15 15s-6.729 15-15 15S1 24.271 1 16 7.729 1 16 1m0-1C7.163 0 0 7.163 0 16s7.163 16 16 16 16-7.163 16-16S24.837 0 16 0z"></path><path d="M16 7.045L24.955 16 16 24.955 7.045 16 16 7.045m0-1.414L5.631 16 16 26.369 26.369 16 16 5.631z"></path><path d="M16 12.538L19.462 16 16 19.462 12.538 16 16 12.538m0-1.414L11.124 16 16 20.876 20.876 16 16 11.124z"></path></g><defs data-v-fde0c5aa=""><!----></defs><g data-v-fde0c5aa="" id="d713ec83-a17f-4b64-b6e1-f53fe00063f8" fill="#000000" transform="matrix(0.5290015714007653,0,0,0.5290015714007653,149.99941389057054,170.83444332286248)"><path d="M0.66 5.35L0.16 5.33L0.16 5.33Q0.28 4.17 0.36 3.08L0.36 3.08L8.44 3.08L8.44 3.08Q8.36 4.13 8.33 4.53L8.33 4.53L8.33 4.53Q8.29 5.26 8.27 5.32L8.27 5.32L7.77 5.30L7.77 5.30Q7.85 4.34 7.85 4.16L7.85 4.16L7.85 4.16Q7.85 3.88 7.71 3.79L7.71 3.79L7.71 3.79Q7.54 3.69 7.14 3.69L7.14 3.69L5.53 3.69L5.53 3.69Q5.02 3.69 4.90 3.79L4.90 3.79L4.90 3.79Q4.81 3.87 4.80 4.36L4.80 4.36L4.80 11.22L4.80 11.22Q4.80 11.66 4.94 11.76L4.94 11.76L4.94 11.76Q5.10 11.87 5.61 11.87L5.61 11.87L6.17 11.87L6.19 12.41L2.50 12.40L2.50 11.87L2.71 11.87L2.71 11.87Q3.38 11.87 3.53 11.79L3.53 11.79L3.53 11.79Q3.67 11.70 3.67 11.28L3.67 11.28L3.67 4.48L3.67 4.48Q3.67 3.92 3.57 3.80L3.57 3.80L3.57 3.80Q3.47 3.69 3.05 3.69L3.05 3.69L1.58 3.69L1.58 3.69Q1.39 3.69 1.33 3.71L1.33 3.71L1.33 3.71Q1.26 3.72 1.15 3.72L1.15 3.72L1.15 3.72Q1.12 3.72 1.00 3.79L1.00 3.79L1.00 3.79Q0.92 3.84 0.90 3.86L0.90 3.86L0.90 3.86Q0.87 3.88 0.83 3.99L0.83 3.99L0.83 3.99Q0.80 4.05 0.77 4.14L0.77 4.14L0.77 4.14Q0.75 4.21 0.72 4.36L0.72 4.36L0.72 4.36Q0.70 4.59 0.70 4.61L0.70 4.61L0.70 4.61Q0.70 4.80 0.68 4.95L0.68 4.95L0.68 4.95Q0.68 5.02 0.68 5.15L0.68 5.15L0.68 5.15Q0.67 5.29 0.66 5.35L0.66 5.35ZM16.19 12.41L16.18 11.87L16.35 11.87L16.35 11.87Q16.74 11.87 16.87 11.73L16.87 11.73L16.87 11.73Q16.99 11.57 17.33 10.83L17.33 10.83L18.24 8.82L18.81 7.53L18.81 7.53Q19.08 6.97 19.12 6.86L19.12 6.86L19.12 6.86Q19.19 6.70 19.24 6.60L19.24 6.60L19.24 6.60Q19.29 6.51 19.30 6.45L19.30 6.45L19.40 6.21L20.83 2.74L21.12 2.74L21.12 2.74Q21.98 4.98 24.17 10.25L24.17 10.25L24.17 10.25Q24.62 11.34 24.81 11.64L24.81 11.64L24.81 11.64Q24.94 11.87 25.38 11.87L25.38 11.87L25.59 11.87L25.58 12.41L22.39 12.41L22.40 11.87L22.82 11.87L22.82 11.87Q23.43 11.87 23.43 11.70L23.43 11.70L23.43 11.70Q23.43 11.63 23.30 11.27L23.30 11.27L22.26 8.72L19.01 8.72L17.90 11.18L17.90 11.18Q17.77 11.50 17.77 11.63L17.77 11.63L17.77 11.63Q17.77 11.79 17.86 11.83L17.86 11.83L17.86 11.83Q17.96 11.87 18.34 11.87L18.34 11.87L18.92 11.87L18.92 12.41L16.19 12.41ZM20.69 4.79L19.28 8.10L22.02 8.10L20.69 4.79ZM33.30 10.04L33.30 10.04L33.79 9.98L33.97 10.85L33.97 10.85Q34.08 11.33 34.15 11.41L34.15 11.41L34.15 11.41Q34.22 11.49 34.63 11.64L34.63 11.64L34.63 11.64Q35.47 11.95 36.37 11.95L36.37 11.95L36.37 11.95Q37.15 11.95 37.69 11.49L37.69 11.49L37.69 11.49Q38.23 11.04 38.23 10.26L38.23 10.26L38.23 10.26Q38.23 9.65 37.77 9.21L37.77 9.21L37.77 9.21Q37.29 8.76 36.44 8.30L36.44 8.30L35.86 7.98L35.86 7.98Q35.12 7.55 34.88 7.36L34.88 7.36L34.88 7.36Q34.52 7.08 34.21 6.59L34.21 6.59L34.21 6.59Q33.90 6.10 33.90 5.46L33.90 5.46L33.90 5.46Q33.90 4.39 34.74 3.68L34.74 3.68L34.74 3.68Q35.58 2.97 36.69 2.97L36.69 2.97L36.69 2.97Q36.97 2.97 37.32 3.04L37.32 3.04L37.32 3.04Q37.52 3.08 37.85 3.17L37.85 3.17L38.09 3.25L38.09 3.25Q38.19 3.25 38.23 3.16L38.23 3.16L38.23 3.16Q38.28 3.05 38.28 2.98L38.28 2.98L38.29 2.88L38.77 2.85L38.99 5.41L38.48 5.43L38.36 4.18L38.36 4.18Q37.61 3.62 36.45 3.62L36.45 3.62L36.45 3.62Q35.81 3.62 35.30 4.05L35.30 4.05L35.30 4.05Q34.82 4.47 34.82 5.12L34.82 5.12L34.82 5.12Q34.82 5.72 35.27 6.17L35.27 6.17L35.27 6.17Q35.70 6.60 36.57 7.08L36.57 7.08L37.34 7.50L37.34 7.50Q38.29 8.03 38.83 8.59L38.83 8.59L38.83 8.59Q39.36 9.15 39.36 9.92L39.36 9.92L39.36 9.92Q39.36 10.99 38.51 11.76L38.51 11.76L38.51 11.76Q37.64 12.54 36.18 12.54L36.18 12.54L36.18 12.54Q35.62 12.54 35.12 12.41L35.12 12.41L35.12 12.41Q34.62 12.29 34.56 12.29L34.56 12.29L34.56 12.29Q34.31 12.29 34.31 12.58L34.31 12.58L34.32 12.76L33.84 12.80L33.84 12.80Q33.78 12.41 33.30 10.04ZM48.13 3.64L47.54 3.64L47.54 3.08L51.04 3.08L51.04 3.64L50.60 3.64L50.60 3.64Q50.20 3.64 50.09 3.73L50.09 3.73L50.09 3.73Q49.98 3.84 49.98 4.28L49.98 4.28L49.98 7.50L54.07 4.18L54.07 4.18Q54.42 3.89 54.42 3.77L54.42 3.77L54.42 3.77Q54.42 3.64 53.78 3.64L53.78 3.64L53.23 3.64L53.20 3.08L56.56 3.08L56.56 3.64L56.20 3.64L56.20 3.64Q55.77 3.64 55.56 3.76L55.56 3.76L55.56 3.76Q55.38 3.86 54.50 4.55L54.50 4.55L51.34 7.08L55.57 11.49L55.57 11.49Q55.93 11.87 56.17 11.87L56.17 11.87L56.98 11.87L56.96 12.41L54.76 12.41L50.50 7.74L49.98 8.16L49.98 11.22L49.98 11.22Q49.98 11.70 50.15 11.79L50.15 11.79L50.15 11.79Q50.32 11.87 51.08 11.87L51.08 11.87L51.39 11.87L51.39 12.41L47.81 12.41L47.80 11.87L48.17 11.87L48.17 11.87Q48.68 11.87 48.76 11.79L48.76 11.79L48.76 11.79Q48.85 11.70 48.85 11.25L48.85 11.25L48.85 4.14L48.85 4.14Q48.85 3.77 48.75 3.71L48.75 3.71L48.75 3.71Q48.64 3.64 48.13 3.64L48.13 3.64ZM77.45 12.41L74.43 12.41L74.43 11.87L74.57 11.87L74.57 11.87Q75.15 11.87 75.27 11.77L75.27 11.77L75.27 11.77Q75.39 11.68 75.41 11.21L75.41 11.21L75.54 4.38L75.54 4.38Q75.54 4.35 75.54 4.28L75.54 4.28L75.54 4.28Q75.55 4.21 75.55 4.17L75.55 4.17L75.55 4.01L75.55 4.01Q75.55 3.76 75.48 3.71L75.48 3.71L75.48 3.71Q75.38 3.64 75.15 3.64L75.15 3.64L74.44 3.64L74.43 3.08L76.54 3.08L79.73 10.55L82.87 3.08L85.11 3.08L85.11 3.64L84.64 3.64L84.64 3.64Q84.18 3.64 84.06 3.71L84.06 3.71L84.06 3.71Q83.90 3.79 83.90 4.08L83.90 4.08L83.90 11.22L83.90 11.22Q83.90 11.68 84.02 11.77L84.02 11.77L84.02 11.77Q84.13 11.87 84.76 11.87L84.76 11.87L85.04 11.87L85.05 12.41L81.66 12.41L81.63 11.87L81.92 11.87L81.92 11.87Q82.53 11.87 82.65 11.77L82.65 11.77L82.65 11.77Q82.77 11.66 82.77 11.25L82.77 11.25L82.77 4.83L80.62 9.91L79.76 12.02L79.76 12.02Q79.63 12.37 79.58 12.44L79.58 12.44L79.58 12.44Q79.54 12.51 79.47 12.51L79.47 12.51L79.47 12.51Q79.37 12.51 78.92 11.52L78.92 11.52L76.11 5.01L76.05 11.39L76.05 11.39Q76.05 11.74 76.25 11.80L76.25 11.80L76.25 11.80Q76.49 11.87 77.45 11.87L77.45 11.87L77.45 12.41ZM92.79 12.41L92.78 11.87L92.95 11.87L92.95 11.87Q93.34 11.87 93.47 11.73L93.47 11.73L93.47 11.73Q93.59 11.57 93.93 10.83L93.93 10.83L94.83 8.82L95.41 7.53L95.41 7.53Q95.68 6.97 95.72 6.86L95.72 6.86L95.72 6.86Q95.79 6.70 95.84 6.60L95.84 6.60L95.84 6.60Q95.89 6.51 95.90 6.45L95.90 6.45L96.00 6.21L97.43 2.74L97.72 2.74L97.72 2.74Q98.57 4.98 100.76 10.25L100.76 10.25L100.76 10.25Q101.21 11.34 101.40 11.64L101.40 11.64L101.40 11.64Q101.54 11.87 101.98 11.87L101.98 11.87L102.19 11.87L102.18 12.41L98.98 12.41L99.00 11.87L99.42 11.87L99.42 11.87Q100.03 11.87 100.03 11.70L100.03 11.70L100.03 11.70Q100.03 11.63 99.89 11.27L99.89 11.27L98.85 8.72L95.61 8.72L94.50 11.18L94.50 11.18Q94.36 11.50 94.36 11.63L94.36 11.63L94.36 11.63Q94.36 11.79 94.46 11.83L94.46 11.83L94.46 11.83Q94.55 11.87 94.94 11.87L94.94 11.87L95.51 11.87L95.51 12.41L92.79 12.41ZM97.29 4.79L95.87 8.10L98.62 8.10L97.29 4.79ZM109.96 3.64L109.92 3.08L113.70 3.08L113.70 3.08Q115.02 3.08 115.89 3.19L115.89 3.19L115.89 3.19Q116.71 3.29 117.40 3.69L117.40 3.69L117.40 3.69Q118.35 4.27 118.86 5.24L118.86 5.24L118.86 5.24Q119.35 6.21 119.35 7.39L119.35 7.39L119.35 7.39Q119.35 8.05 119.21 8.65L119.21 8.65L119.21 8.65Q119.05 9.29 118.66 9.98L118.66 9.98L118.66 9.98Q118.23 10.73 117.67 11.21L117.67 11.21L117.67 11.21Q117.04 11.76 116.07 12.08L116.07 12.08L116.07 12.08Q115.06 12.41 113.79 12.41L113.79 12.41L110.17 12.41L110.16 11.87L110.54 11.87L110.54 11.87Q111.06 11.87 111.16 11.79L111.16 11.79L111.16 11.79Q111.27 11.70 111.27 11.25L111.27 11.25L111.27 4.14L111.27 4.14Q111.27 3.77 111.17 3.71L111.17 3.71L111.17 3.71Q111.06 3.64 110.55 3.64L110.55 3.64L109.96 3.64ZM112.40 4.39L112.40 11.22L112.40 11.22Q112.40 11.67 112.57 11.77L112.57 11.77L112.57 11.77Q112.72 11.87 113.59 11.87L113.59 11.87L113.59 11.87Q114.65 11.87 115.44 11.61L115.44 11.61L115.44 11.61Q116.29 11.35 116.73 10.99L116.73 10.99L116.73 10.99Q117.22 10.58 117.53 10.05L117.53 10.05L117.53 10.05Q117.83 9.52 117.96 8.96L117.96 8.96L117.96 8.96Q118.08 8.41 118.08 7.82L118.08 7.82L118.08 7.82Q118.08 7.03 117.82 6.34L117.82 6.34L117.82 6.34Q117.55 5.65 117.02 5.05L117.02 5.05L117.02 5.05Q116.49 4.46 115.58 4.09L115.58 4.09L115.58 4.09Q114.66 3.73 113.50 3.73L113.50 3.73L112.98 3.73L112.98 3.73Q112.62 3.73 112.51 3.85L112.51 3.85L112.51 3.85Q112.40 3.99 112.40 4.39L112.40 4.39ZM127.33 3.64L127.32 3.08L134.53 3.08L134.53 3.08Q134.54 4.14 134.60 5.28L134.60 5.28L134.05 5.30L134.05 5.30Q134.04 4.66 133.98 4.25L133.98 4.25L133.98 4.25Q133.94 3.89 133.89 3.80L133.89 3.80L133.89 3.80Q133.83 3.71 133.72 3.69L133.72 3.69L133.72 3.69Q133.62 3.68 133.03 3.68L133.03 3.68L130.66 3.68L130.66 3.68Q130.11 3.68 129.96 3.77L129.96 3.77L129.96 3.77Q129.84 3.86 129.84 4.33L129.84 4.33L129.84 6.28L129.84 6.28Q129.84 6.69 129.90 6.76L129.90 6.76L129.90 6.76Q129.96 6.84 130.31 6.84L130.31 6.84L132.42 6.84L132.42 6.84Q132.78 6.84 132.86 6.73L132.86 6.73L132.86 6.73Q132.95 6.63 132.95 6.14L132.95 6.14L132.95 5.61L133.46 5.63L133.46 8.97L132.95 8.97L132.95 8.24L132.95 8.24Q132.95 7.66 132.88 7.57L132.88 7.57L132.88 7.57Q132.79 7.46 132.45 7.46L132.45 7.46L130.35 7.46L130.35 7.46Q130.01 7.46 129.93 7.54L129.93 7.54L129.93 7.54Q129.84 7.63 129.84 7.89L129.84 7.89L129.84 11.20L129.84 11.20Q129.84 11.57 129.93 11.67L129.93 11.67L129.93 11.67Q130.01 11.77 130.29 11.77L130.29 11.77L130.29 11.77Q133.21 11.75 133.73 11.69L133.73 11.69L133.73 11.69Q134.25 11.63 134.33 11.38L134.33 11.38L134.34 11.36L134.35 11.35L134.57 10.17L135.05 10.25L134.70 12.41L127.60 12.41L127.60 11.87L127.97 11.87L127.97 11.87Q128.53 11.87 128.61 11.80L128.61 11.80L128.61 11.80Q128.71 11.72 128.71 11.33L128.71 11.33L128.71 4.24L128.71 4.24Q128.71 3.82 128.56 3.73L128.56 3.73L128.56 3.73Q128.39 3.64 127.73 3.64L127.73 3.64L127.33 3.64ZM152.51 3.64L152.50 3.08L159.71 3.08L159.71 3.08Q159.72 4.14 159.78 5.28L159.78 5.28L159.23 5.30L159.23 5.30Q159.22 4.66 159.16 4.25L159.16 4.25L159.16 4.25Q159.12 3.89 159.07 3.80L159.07 3.80L159.07 3.80Q159.01 3.71 158.89 3.69L158.89 3.69L158.89 3.69Q158.80 3.68 158.21 3.68L158.21 3.68L155.83 3.68L155.83 3.68Q155.29 3.68 155.14 3.77L155.14 3.77L155.14 3.77Q155.02 3.86 155.02 4.33L155.02 4.33L155.02 6.28L155.02 6.28Q155.02 6.69 155.07 6.76L155.07 6.76L155.07 6.76Q155.14 6.84 155.48 6.84L155.48 6.84L157.60 6.84L157.60 6.84Q157.96 6.84 158.04 6.73L158.04 6.73L158.04 6.73Q158.12 6.63 158.13 6.14L158.13 6.14L158.13 5.61L158.64 5.63L158.64 8.97L158.13 8.97L158.13 8.24L158.13 8.24Q158.13 7.66 158.05 7.57L158.05 7.57L158.05 7.57Q157.97 7.46 157.62 7.46L157.62 7.46L155.52 7.46L155.52 7.46Q155.19 7.46 155.10 7.54L155.10 7.54L155.10 7.54Q155.02 7.63 155.02 7.89L155.02 7.89L155.02 11.20L155.02 11.20Q155.02 11.57 155.10 11.67L155.10 11.67L155.10 11.67Q155.19 11.77 155.46 11.77L155.46 11.77L155.46 11.77Q158.38 11.75 158.91 11.69L158.91 11.69L158.91 11.69Q159.43 11.63 159.51 11.38L159.51 11.38L159.52 11.36L159.52 11.35L159.75 10.17L160.23 10.25L159.88 12.41L152.78 12.41L152.78 11.87L153.15 11.87L153.15 11.87Q153.71 11.87 153.79 11.80L153.79 11.80L153.79 11.80Q153.88 11.72 153.88 11.33L153.88 11.33L153.88 4.24L153.88 4.24Q153.88 3.82 153.73 3.73L153.73 3.73L153.73 3.73Q153.56 3.64 152.91 3.64L152.91 3.64L152.51 3.64ZM168.12 12.41L168.10 11.87L168.27 11.87L168.27 11.87Q168.66 11.87 168.79 11.73L168.79 11.73L168.79 11.73Q168.92 11.57 169.25 10.83L169.25 10.83L170.16 8.82L170.73 7.53L170.73 7.53Q171.00 6.97 171.04 6.86L171.04 6.86L171.04 6.86Q171.11 6.70 171.16 6.60L171.16 6.60L171.16 6.60Q171.21 6.51 171.23 6.45L171.23 6.45L171.32 6.21L172.75 2.74L173.04 2.74L173.04 2.74Q173.90 4.98 176.09 10.25L176.09 10.25L176.09 10.25Q176.54 11.34 176.73 11.64L176.73 11.64L176.73 11.64Q176.87 11.87 177.30 11.87L177.30 11.87L177.52 11.87L177.50 12.41L174.31 12.41L174.32 11.87L174.74 11.87L174.74 11.87Q175.36 11.87 175.36 11.70L175.36 11.70L175.36 11.70Q175.36 11.63 175.22 11.27L175.22 11.27L174.18 8.72L170.93 8.72L169.83 11.18L169.83 11.18Q169.69 11.50 169.69 11.63L169.69 11.63L169.69 11.63Q169.69 11.79 169.78 11.83L169.78 11.83L169.78 11.83Q169.88 11.87 170.26 11.87L170.26 11.87L170.84 11.87L170.84 12.41L168.12 12.41ZM172.61 4.79L171.20 8.10L173.94 8.10L172.61 4.79ZM185.22 10.04L185.22 10.04L185.71 9.98L185.90 10.85L185.90 10.85Q186.01 11.33 186.07 11.41L186.07 11.41L186.07 11.41Q186.14 11.49 186.55 11.64L186.55 11.64L186.55 11.64Q187.39 11.95 188.29 11.95L188.29 11.95L188.29 11.95Q189.08 11.95 189.62 11.49L189.62 11.49L189.62 11.49Q190.15 11.04 190.15 10.26L190.15 10.26L190.15 10.26Q190.15 9.65 189.69 9.21L189.69 9.21L189.69 9.21Q189.21 8.76 188.36 8.30L188.36 8.30L187.78 7.98L187.78 7.98Q187.04 7.55 186.81 7.36L186.81 7.36L186.81 7.36Q186.44 7.08 186.13 6.59L186.13 6.59L186.13 6.59Q185.82 6.10 185.82 5.46L185.82 5.46L185.82 5.46Q185.82 4.39 186.66 3.68L186.66 3.68L186.66 3.68Q187.50 2.97 188.61 2.97L188.61 2.97L188.61 2.97Q188.89 2.97 189.24 3.04L189.24 3.04L189.24 3.04Q189.44 3.08 189.77 3.17L189.77 3.17L190.01 3.25L190.01 3.25Q190.11 3.25 190.15 3.16L190.15 3.16L190.15 3.16Q190.20 3.05 190.20 2.98L190.20 2.98L190.22 2.88L190.70 2.85L190.91 5.41L190.40 5.43L190.28 4.18L190.28 4.18Q189.53 3.62 188.37 3.62L188.37 3.62L188.37 3.62Q187.73 3.62 187.22 4.05L187.22 4.05L187.22 4.05Q186.74 4.47 186.74 5.12L186.74 5.12L186.74 5.12Q186.74 5.72 187.20 6.17L187.20 6.17L187.20 6.17Q187.63 6.60 188.49 7.08L188.49 7.08L189.27 7.50L189.27 7.50Q190.22 8.03 190.75 8.59L190.75 8.59L190.75 8.59Q191.28 9.15 191.28 9.92L191.28 9.92L191.28 9.92Q191.28 10.99 190.43 11.76L190.43 11.76L190.43 11.76Q189.56 12.54 188.10 12.54L188.10 12.54L188.10 12.54Q187.54 12.54 187.04 12.41L187.04 12.41L187.04 12.41Q186.54 12.29 186.48 12.29L186.48 12.29L186.48 12.29Q186.23 12.29 186.23 12.58L186.23 12.58L186.25 12.76L185.77 12.80L185.77 12.80Q185.71 12.41 185.22 10.04ZM199.61 3.64L199.61 3.64L199.62 3.08L202.76 3.08L202.76 3.64L202.48 3.64L202.48 3.64Q202.03 3.64 201.92 3.66L201.92 3.66L201.92 3.66Q201.75 3.71 201.75 3.82L201.75 3.82L201.75 3.82Q201.75 3.89 202.00 4.31L202.00 4.31L204.00 7.46L206.45 3.99L206.45 3.99Q206.53 3.83 206.54 3.82L206.54 3.82L206.54 3.82Q206.54 3.64 205.63 3.64L205.63 3.64L205.41 3.64L205.39 3.08L207.94 3.08L207.94 3.64L207.87 3.64L207.87 3.64Q207.52 3.64 207.38 3.72L207.38 3.72L207.38 3.72Q207.22 3.80 206.93 4.22L206.93 4.22L204.20 8.17L204.20 11.22L204.20 11.22Q204.20 11.66 204.31 11.77L204.31 11.77L204.31 11.77Q204.41 11.87 205.02 11.87L205.02 11.87L205.66 11.87L205.64 12.41L201.71 12.41L201.72 11.87L202.28 11.87L202.28 11.87Q202.82 11.87 202.94 11.79L202.94 11.79L202.94 11.79Q203.07 11.70 203.07 11.25L203.07 11.25L203.07 8.06L200.77 4.49L200.77 4.49Q200.35 3.84 200.22 3.73L200.22 3.73L200.22 3.73Q200.12 3.64 199.61 3.64Z"></path></g></svg>